REM MD5 f25716fa6dd8ba057d4fc36ac41bcf79
FILE "Hot Shot (Europe).bin" BINARY
  TRACK 01 MODE2/2352
    INDEX 01 00:00:00
  TRACK 02 AUDIO
    INDEX 00 10:32:51
    INDEX 01 10:34:51
  TRACK 03 AUDIO
    INDEX 00 12:25:41
    INDEX 01 12:27:41
REM LEADOUT 20:15:14
